<svg xmlns="http://www.w3.org/2000/svg" width="165" height="120"><defs><radialGradient id="a" cx="52.436%" cy="42.955%" r="261.826%" fx="52.436%" fy="42.955%" gradientTransform="matrix(-.13793 0 0 -.21136 .597 .52)"><stop offset="0%" stop-opacity=".315"/><stop offset="100%" stop-opacity="0"/></radialGradient><linearGradient id="b" x1="34.652%" y1="13.21%" y2="100%"><stop offset="0%" stop-color="#76E1FF"/><stop offset="100%" stop-color="#637BFF" stop-opacity="0"/></linearGradient><linearGradient id="c" x1="50%" x2="50%" y1="0%" y2="97.483%"><stop offset="0%" stop-color="#21C8F6"/><stop offset="100%" stop-color="#637BFF"/></linearGradient><linearGradient id="d" x1="54.872%" x2="54.872%" y1="62.175%" y2="100%"><stop offset="0%" stop-color="#1A273E"/><stop offset="100%" stop-color="#2E4469"/></linearGradient><linearGradient id="e" x1="50%" x2="50%" y1="115.834%" y2="-26.266%"><stop offset="0%" stop-color="#76E1FF"/><stop offset="100%" stop-color="#637BFF" stop-opacity="0"/></linearGradient><linearGradient id="f" x1="51.569%" x2="56.445%" y1="0%" y2="100%"><stop offset="0%" stop-color="#5B79A2"/><stop offset="100%" stop-color="#2E4469"/></linearGradient><radialGradient id="g" cx="52.436%" cy="42.955%" r="95.596%" fx="52.436%" fy="42.955%" gradientTransform="matrix(-.37778 0 0 -.21136 .722 .52)"><stop offset="0%"/><stop offset="100%" stop-opacity="0"/></radialGradient></defs><g fill="none" fill-rule="evenodd" transform="translate(17 38)"><ellipse cx="65" cy="70" fill="url(#a)" opacity=".509" rx="58" ry="8" transform="rotate(-180 65 70)"/><g transform="rotate(-173 64.14 25.992)"><g transform="scale(-1 1) rotate(48 -11.505 -24.73)"><path stroke="url(#b)" stroke-width="2" d="M27.638 35.18l1.486-29.683-18.078 1.246"/><circle cx="28.599" cy="6.089" r="3.5" fill="url(#c)"/></g><rect width="4" height="11" x="18.999" y="6.829" fill="url(#c)" rx="2" transform="rotate(-17 21 12.329)"/></g><g transform="translate(17 26)"><ellipse cx="48.5" cy="20" fill="url(#d)" rx="37.5" ry="19"/><ellipse cx="48.5" cy="20" stroke="url(#e)" stroke-width="1.5" rx="37.5" ry="19"/><path fill="url(#d)" d="M11.465 16c2.839 9.068 18.34 16 37.035 16 18.696 0 34.196-6.932 37.035-16A10 10 0 0 1 86 19c0 10.493-16.79 19-37.5 19S11 29.493 11 19a10 10 0 0 1 .465-3z"/><path fill="url(#f)" d="M18.587 1h58.439a9 9 0 0 1 8.59 11.685l-.905 2.895a18 18 0 0 1-17.18 12.63H28.08A18 18 0 0 1 10.9 15.58l-.905-2.895A9 9 0 0 1 18.586 1z"/><ellipse cx="45" cy="17" fill="url(#g)" opacity=".744" rx="45" ry="17" style="mix-blend-mode:soft-light"/><path stroke="url(#e)" d="M18.587 1h58.439a9 9 0 0 1 8.59 11.685l-.905 2.895a18 18 0 0 1-17.18 12.63H28.08A18 18 0 0 1 10.9 15.58l-.905-2.895A9 9 0 0 1 18.586 1z"/></g><g transform="translate(25)"><ellipse cx="40.5" cy="19" fill="url(#d)" rx="37.5" ry="19"/><path fill="url(#d)" d="M3.465 15c2.839 9.068 18.34 16 37.035 16 18.696 0 34.196-6.932 37.035-16A10 10 0 0 1 78 18c0 10.493-16.79 19-37.5 19S3 28.493 3 18a10 10 0 0 1 .465-3z"/><path fill="url(#f)" d="M10.587 0h58.439a9 9 0 0 1 8.59 11.685l-.905 2.895a18 18 0 0 1-17.18 12.63H20.08A18 18 0 0 1 2.9 14.58l-.905-2.895A9 9 0 0 1 10.586 0z"/><path stroke="url(#e)" d="M10.587 0h58.439a9 9 0 0 1 8.59 11.685l-.905 2.895a18 18 0 0 1-17.18 12.63H20.08A18 18 0 0 1 2.9 14.58l-.905-2.895A9 9 0 0 1 10.586 0z"/></g><g transform="rotate(7 2.986 48.817)"><g transform="scale(-1 1) rotate(48 -11.505 -24.73)"><path stroke="url(#b)" stroke-width="2" d="M27.638 35.18l1.486-29.683-18.078 1.246"/><circle cx="28.599" cy="6.089" r="3.5" fill="url(#c)"/></g><rect width="4" height="11" x="18.999" y="6.829" fill="url(#c)" rx="2" transform="rotate(-17 21 12.329)"/></g><g transform="translate(50 32)"><rect width="31" height="4" fill="#2E4469" rx="2"/><rect width="25" height="1.2" x="3" y="1.5" fill="#538DFD" rx=".6"/></g><g transform="translate(50 58)"><rect width="31" height="4" fill="#2E4469" rx="2"/><rect width="15" height="1.2" x="3" y="1.5" fill="#538DFD" rx=".6"/></g></g></svg>