<svg xmlns="http://www.w3.org/2000/svg" width="165" height="120"><defs><linearGradient id="a" x1="-9.283%" x2="91.433%" y1="-26.564%" y2="86.436%"><stop offset="0%" stop-color="#76E1FF"/><stop offset="100%" stop-color="#637BFF" stop-opacity="0"/></linearGradient><linearGradient id="b" x1="50%" x2="50%" y1="0%" y2="97.483%"><stop offset="0%" stop-color="#21C8F6"/><stop offset="100%" stop-color="#637BFF"/></linearGradient><linearGradient id="c" x1="39.518%" x2="65.812%" y1="-56.8%" y2="78.38%"><stop offset="0%" stop-color="#76E1FF"/><stop offset="100%" stop-color="#637BFF" stop-opacity="0"/></linearGradient><linearGradient id="d" x1="12.205%" x2="108.596%" y1="0%" y2="100%"><stop offset="0%" stop-color="#5B79A2"/><stop offset="100%" stop-color="#2E4469"/></linearGradient><linearGradient id="e" x1="62.466%" x2="-57.194%" y1="-596.486%" y2="1390.011%"><stop offset="0%" stop-color="#21C8F6"/><stop offset="100%" stop-color="#637BFF" stop-opacity="0"/></linearGradient><linearGradient id="f" x1="12.8%" x2="107.421%" y1=".616%" y2="98.781%"><stop offset="0%" stop-color="#587CB9"/><stop offset="100%" stop-color="#2E4469" stop-opacity="0"/></linearGradient><linearGradient id="g" x1="0%" x2="84.171%" y1="0%" y2="97.907%"><stop offset="0%" stop-color="#76E1FF"/><stop offset="100%" stop-color="#637BFF" stop-opacity="0"/></linearGradient><linearGradient id="h" x1="24.379%" x2="84.171%" y1="5.536%" y2="97.907%"><stop offset="0%" stop-color="#76E1FF"/><stop offset="100%" stop-color="#637BFF" stop-opacity="0"/></linearGradient><radialGradient id="i" cx="52.436%" cy="42.955%" r="167.027%" fx="52.436%" fy="42.955%" gradientTransform="matrix(-.21622 0 0 -.21136 .638 .52)"><stop offset="0%" stop-opacity=".315"/><stop offset="100%" stop-opacity="0"/></radialGradient></defs><g fill="none" fill-rule="evenodd" transform="translate(1 9)"><g transform="rotate(-173 73.732 25.907)"><g transform="scale(-1 1) rotate(48 -11.505 -24.73)"><path stroke="url(#a)" stroke-width="2" d="M25.59 39.418l3.534-33.92-26.15-.661"/><circle cx="28.599" cy="6.089" r="3.5" fill="url(#b)"/></g><rect width="4" height="11" x="21.724" y=".72" fill="url(#b)" rx="2" transform="rotate(-20 23.724 6.22)"/></g><g transform="scale(1 -1) rotate(26 173.498 15.945)"><g transform="scale(-1 1) rotate(48 -12.628 -24.23)"><path stroke="url(#c)" stroke-width="2" d="M14.906 43.446L29.124 5.497l-26.15-.66"/><circle cx="28.599" cy="6.089" r="3.5" fill="url(#b)"/></g><rect width="4" height="11" x="21.821" y=".352" fill="url(#b)" rx="2" transform="rotate(-20 23.82 5.852)"/></g><g transform="translate(45 19)"><circle cx="37.5" cy="37.5" r="37.5" fill="url(#d)" transform="rotate(-180 37.5 37.5)"/><g transform="translate(5 9)"><g transform="rotate(-180 32.407 29.908)"><ellipse cx="31.863" cy="29.13" fill="#25395B" fill-rule="nonzero" rx="31.863" ry="29.13"/><g stroke="url(#e)" stroke-width=".97" opacity=".098" transform="translate(13.94 7.902)"><g transform="rotate(-90 18.734 12.162)"><path d="M28.906 3.317H16.722M28.906 19.6H16.722m12.184-7.84h-7.553v14.552H0v5.093"/><ellipse cx="13.49" cy="3.317" rx="3.232" ry="3.317"/><ellipse cx="13.49" cy="19.6" rx="3.232" ry="3.317"/></g><path d="M.477 42.763V32.742h6.839v6.318h5.983V27.82h12.395v8.917h4.274V24.85h8.548"/><path d="M21.74 42.674V30.792H10.2v-5.967H3.043V2.781"/></g><ellipse cx="32.31" cy="30.492" fill="url(#f)" opacity=".594" rx="24.344" ry="24.566"/><ellipse cx="32.31" cy="30.492" fill="url(#f)" opacity=".816" rx="17.374" ry="17.652"/><path fill="#213453" d="M.553 23.705c2.784 13.492 15.743 23.698 31.31 23.698 15.566 0 28.526-10.206 31.31-23.698.363 1.76.552 3.576.552 5.432 0 16.089-14.265 29.13-31.862 29.13C14.265 58.268 0 45.227 0 29.138c0-1.856.19-3.672.553-5.432z"/></g><g fill="url(#g)" fill-rule="nonzero" style="mix-blend-mode:hard-light" transform="matrix(1 0 0 -1 17.02 41.05)"><path d="M9.12 24.685v-7.933h2.991v3.322l14.85-6.94a7.498 7.498 0 0 0 1.05-.557 3.86 3.86 0 0 0-.34-.213L12.11 4.715V9.52H9.117V0L29.1 9.821c.735.39 2.426 1.468 2.244 3.001-.17 1.469-2.04 2.476-3.16 2.951l-19.07 8.92.006-.008z"/><path d="M17.205 15.803H6.084a1 1 0 0 1-1.014-.987 1 1 0 0 1 1.014-.988H17.2a1 1 0 0 1 1.014.988 1 1 0 0 1-1.014.987h.005zm4-2.963H10.168c-.582 0-1.053-.442-1.053-.987 0-.546.471-.988 1.053-.988h11.037c.581 0 1.053.442 1.053.988 0 .545-.472.987-1.053.987zM3.053 14.816H1.022a.997.997 0 0 1-1.007-.988.998.998 0 0 1 1.007-.988h2.03a.997.997 0 0 1 1.007.988c0 .545-.45.988-1.006.988zm4.044-1.976h-2.03a.997.997 0 0 1-1.008-.987.998.998 0 0 1 1.007-.988h2.03a.997.997 0 0 1 1.008.988.997.997 0 0 1-1.007.987z"/><path d="M9.12 24.685v-7.933h2.991v3.322l14.85-6.94a7.498 7.498 0 0 0 1.05-.557 3.86 3.86 0 0 0-.34-.213L12.11 4.715V9.52H9.117V0L29.1 9.821c.735.39 2.426 1.468 2.244 3.001-.17 1.469-2.04 2.476-3.16 2.951l-19.07 8.92.006-.008z"/><path d="M17.205 15.803H6.084a1 1 0 0 1-1.014-.987 1 1 0 0 1 1.014-.988H17.2a1 1 0 0 1 1.014.988 1 1 0 0 1-1.014.987h.005zm4-2.963H10.168c-.582 0-1.053-.442-1.053-.987 0-.546.471-.988 1.053-.988h11.037c.581 0 1.053.442 1.053.988 0 .545-.472.987-1.053.987z"/></g><ellipse cx="32.951" cy="30.685" stroke="url(#h)" stroke-width=".99" rx="31.368" ry="28.635" transform="rotate(-180 32.951 30.685)"/></g></g><ellipse cx="85" cy="103" fill="url(#i)" opacity=".509" rx="37" ry="8" transform="rotate(-180 85 103)"/></g></svg>